<svg width="2000" height="1048" viewBox="0 0 2000 1048" fill="none" xmlns="http://www.w3.org/2000/svg">
<mask id="mask0_687_4303" style="mask-type:alpha" maskUnits="userSpaceOnUse" x="9" y="11" width="1974" height="1026">
<path d="M1982.83 536.092C1990.93 1039.54 1712.94 1037 995.927 1037C278.917 1037 5.98688 955.717 9.02506 536.092C12.0632 116.467 317.354 -0.121524 995.927 11.8147C1674.5 23.7509 1974.73 32.6436 1982.83 536.092Z" fill="#D9D9D9"/>
</mask>
<g mask="url(#mask0_687_4303)">
<rect x="-214" y="-40" width="2428" height="1263" fill="#32A4F6"/>
<rect width="16.7327" height="90.954" transform="matrix(-1 0 0 1 886.328 278.427)" fill="#EACFB7"/>
<path d="M869.596 278.547H849.278V369.262H869.596V278.547Z" fill="#D3A298"/>
<rect width="2.86846" height="5.25194" transform="matrix(-1 0 0 1 860.512 284.157)" fill="#3A3C43"/>
<rect width="2.86846" height="5.25194" transform="matrix(-1 0 0 1 865.293 284.157)" fill="#3A3C43"/>
<rect width="2.86845" height="5.25194" transform="matrix(-1 0 0 1 855.731 284.157)" fill="#3A3C43"/>
<rect width="2.39038" height="5.25194" transform="matrix(-1 0 0 1 879.157 284.157)" fill="#3A3C43"/>
<rect width="2.62942" height="5.25194" transform="matrix(-1 0 0 1 883.46 284.157)" fill="#3A3C43"/>
<rect width="2.62942" height="5.25194" transform="matrix(-1 0 0 1 875.094 284.157)" fill="#3A3C43"/>
<rect width="2.86846" height="5.25194" transform="matrix(-1 0 0 1 860.512 298.361)" fill="#3A3C43"/>
<rect width="2.86846" height="5.25194" transform="matrix(-1 0 0 1 860.512 327.008)" fill="#3A3C43"/>
<rect width="2.62942" height="5.25194" transform="matrix(-1 0 0 1 879.396 298.48)" fill="#3A3C43"/>
<rect width="2.86845" height="5.25194" transform="matrix(-1 0 0 1 879.396 327.127)" fill="#3A3C43"/>
<path d="M868.759 228.056L880.855 267.618L890.87 278.427H846.648L856.663 267.618L868.759 228.056Z" fill="#DBA29D"/>
<path d="M868.639 228.056L868.639 278.427H846.648L856.609 267.618L868.639 228.056Z" fill="#AA6963"/>
<rect width="20.5968" height="93.6392" transform="matrix(-1 0 0 1 938.803 327.386)" fill="white"/>
<path d="M928.505 318.047H907.663L917.961 327.509H938.803L928.505 318.047Z" fill="#B59391"/>
<path d="M918.206 327.509L907.908 318.047L897.364 327.509V420.902H918.206V327.509Z" fill="#FFD1A6"/>
<rect width="2.9424" height="5.40699" transform="matrix(-1 0 0 1 908.889 333.162)" fill="#C2CBEC"/>
<rect width="2.9424" height="5.40699" transform="matrix(-1 0 0 1 908.889 347.908)" fill="#C2CBEC"/>
<rect width="2.9424" height="5.40699" transform="matrix(-1 0 0 1 908.889 362.654)" fill="#C2CBEC"/>
<rect width="2.9424" height="5.40699" transform="matrix(-1 0 0 1 908.889 377.401)" fill="#C2CBEC"/>
<rect x="827.474" y="360.259" width="64.3229" height="44.8405" fill="#FFD1A6"/>
<path d="M840.463 348.353H904.786L891.797 360.258H827.474L840.463 348.353Z" fill="#B95C5C"/>
<path d="M891.797 360.259L904.785 348.353L918.083 360.259V405.099H891.797V360.259Z" fill="white"/>
<rect x="902.93" y="390.564" width="3.71094" height="6.80339" fill="#FFD9A0"/>
<rect x="902.93" y="376.03" width="3.71094" height="6.80339" fill="#FFD9A0"/>
<rect x="837.37" y="376.03" width="5.25716" height="6.80339" fill="#C2CBEC"/>
<rect x="837.37" y="390.564" width="5.25716" height="6.80339" fill="#C2CBEC"/>
<rect x="855.925" y="376.03" width="5.25716" height="6.80339" fill="#C2CBEC"/>
<rect x="855.925" y="390.564" width="5.25716" height="6.80339" fill="#C2CBEC"/>
<rect x="874.479" y="390.564" width="5.25716" height="6.80339" fill="#C2CBEC"/>
<rect x="874.479" y="376.03" width="5.25716" height="6.80339" fill="#C2CBEC"/>
<rect width="64.3229" height="44.8405" transform="matrix(-1 0 0 1 1025.08 361.496)" fill="white"/>
<rect width="64.3229" height="44.8405" transform="matrix(-1 0 0 1 1025.08 361.65)" fill="white"/>
<path d="M1012.09 349.59H947.771L960.759 361.496H1025.08L1012.09 349.59Z" fill="#B59391"/>
<path d="M960.76 361.496L947.771 349.59L934.474 361.496V406.336H960.76V361.496Z" fill="#FFD1A6"/>
<rect width="3.71094" height="6.80339" transform="matrix(-1 0 0 1 949.627 391.802)" fill="#C2CBEC"/>
<rect width="3.71094" height="6.80339" transform="matrix(-1 0 0 1 949.627 377.267)" fill="#C2CBEC"/>
<rect width="3.40169" height="6.80339" transform="matrix(-1 0 0 1 996.013 377.113)" fill="#FFD9A0"/>
<rect width="3.40169" height="6.80339" transform="matrix(-1 0 0 1 996.013 391.647)" fill="#FFD9A0"/>
<rect width="3.09245" height="6.80339" transform="matrix(-1 0 0 1 984.571 377.113)" fill="#FFD9A0"/>
<rect width="3.09245" height="6.80339" transform="matrix(-1 0 0 1 984.571 391.647)" fill="#FFD9A0"/>
<rect width="3.09245" height="6.80339" transform="matrix(-1 0 0 1 973.129 391.647)" fill="#FFD9A0"/>
<rect width="3.09245" height="6.80339" transform="matrix(-1 0 0 1 973.129 377.113)" fill="#FFD9A0"/>
<rect width="3.09245" height="6.80339" transform="matrix(-1 0 0 1 1018.59 377.422)" fill="#FFD9A0"/>
<rect width="3.09245" height="6.80339" transform="matrix(-1 0 0 1 1018.59 391.957)" fill="#FFD9A0"/>
<rect width="3.09245" height="6.80339" transform="matrix(-1 0 0 1 1007.15 391.957)" fill="#FFD9A0"/>
<rect width="3.09245" height="6.80339" transform="matrix(-1 0 0 1 1007.15 377.422)" fill="#FFD9A0"/>
<rect width="25.9766" height="117.822" transform="matrix(-1 0 0 1 777.377 306.296)" fill="white"/>
<path d="M764.388 294.544H738.103L751.091 306.45H777.377L764.388 294.544Z" fill="#B59391"/>
<path d="M751.4 306.45L738.412 294.544L725.115 306.45V423.963H751.4V306.45Z" fill="#FFD1A6"/>
<rect width="3.71094" height="6.80339" transform="matrix(-1 0 0 1 739.649 313.563)" fill="#C2CBEC"/>
<rect width="3.71094" height="6.80339" transform="matrix(-1 0 0 1 739.649 332.118)" fill="#C2CBEC"/>
<rect width="3.71094" height="6.80339" transform="matrix(-1 0 0 1 739.649 350.672)" fill="#C2CBEC"/>
<rect width="3.71094" height="6.80339" transform="matrix(-1 0 0 1 739.649 369.227)" fill="#C2CBEC"/>
<rect width="64.3229" height="44.8405" transform="matrix(-1 0 0 1 839.844 379.123)" fill="white"/>
<rect width="64.3229" height="44.8405" transform="matrix(-1 0 0 1 839.844 379.277)" fill="white"/>
<path d="M826.856 367.217H762.533L775.521 379.123H839.844L826.856 367.217Z" fill="#B59391"/>
<path d="M775.521 379.123L762.533 367.217L749.235 379.123V423.963H775.521V379.123Z" fill="#FFD1A6"/>
<rect width="3.71094" height="6.80339" transform="matrix(-1 0 0 1 764.388 409.428)" fill="#C2CBEC"/>
<rect width="3.71094" height="6.80339" transform="matrix(-1 0 0 1 764.388 394.894)" fill="#C2CBEC"/>
<rect width="3.40169" height="6.80339" transform="matrix(-1 0 0 1 810.775 394.74)" fill="#FFD9A0"/>
<rect width="3.40169" height="6.80339" transform="matrix(-1 0 0 1 810.775 409.274)" fill="#FFD9A0"/>
<rect width="3.09245" height="6.80339" transform="matrix(-1 0 0 1 799.333 394.74)" fill="#FFD9A0"/>
<rect width="3.09245" height="6.80339" transform="matrix(-1 0 0 1 799.333 409.274)" fill="#FFD9A0"/>
<rect width="3.09245" height="6.80339" transform="matrix(-1 0 0 1 787.891 409.274)" fill="#FFD9A0"/>
<rect width="3.09245" height="6.80339" transform="matrix(-1 0 0 1 787.891 394.74)" fill="#FFD9A0"/>
<rect width="3.09245" height="6.80339" transform="matrix(-1 0 0 1 833.35 395.049)" fill="#FFD9A0"/>
<rect width="3.09245" height="6.80339" transform="matrix(-1 0 0 1 833.35 409.583)" fill="#FFD9A0"/>
<rect width="3.09245" height="6.80339" transform="matrix(-1 0 0 1 821.908 409.583)" fill="#FFD9A0"/>
<rect width="3.09245" height="6.80339" transform="matrix(-1 0 0 1 821.908 395.049)" fill="#FFD9A0"/>
<rect x="874.171" y="379.123" width="64.3229" height="44.8405" fill="#FFD1A6"/>
<path d="M887.159 367.217H951.482L938.494 379.123H874.171L887.159 367.217Z" fill="#B59391"/>
<path d="M938.494 379.123L951.482 367.217L964.78 379.123V423.963H938.494V379.123Z" fill="white"/>
<rect x="949.627" y="409.428" width="3.71094" height="6.80339" fill="#FFD9A0"/>
<rect x="949.627" y="394.894" width="3.71094" height="6.80339" fill="#FFD9A0"/>
<rect x="884.067" y="394.894" width="5.25716" height="6.80339" fill="#C2CBEC"/>
<rect x="884.067" y="409.428" width="5.25716" height="6.80339" fill="#C2CBEC"/>
<rect x="902.621" y="394.894" width="5.25716" height="6.80339" fill="#C2CBEC"/>
<rect x="902.621" y="409.428" width="5.25716" height="6.80339" fill="#C2CBEC"/>
<rect x="921.176" y="409.428" width="5.25716" height="6.80339" fill="#C2CBEC"/>
<rect x="921.176" y="394.894" width="5.25716" height="6.80339" fill="#C2CBEC"/>
<rect x="835.206" y="405.254" width="25.9766" height="18.8639" fill="#FFD1A6"/>
<path d="M848.194 393.503H874.48L861.492 405.409H835.206L848.194 393.503Z" fill="#B95C5C"/>
<path d="M861.183 405.409L874.171 393.503L887.468 405.409V423.963H861.183V405.409Z" fill="white"/>
<rect x="872.934" y="412.521" width="3.71094" height="6.80339" fill="#FFD9A0"/>
<rect x="841.082" y="412.676" width="2.7832" height="6.80339" fill="#C2CBEC"/>
<rect x="851.596" y="412.676" width="2.7832" height="6.80339" fill="#C2CBEC"/>
<rect width="25.9766" height="18.8639" transform="matrix(-1 0 0 1 1106.41 405.872)" fill="white"/>
<path d="M1093.43 394.121H1067.14L1080.13 406.027H1106.41L1093.43 394.121Z" fill="#B59391"/>
<path d="M1080.44 406.027L1067.45 394.121L1054.15 406.027V424.582H1080.44V406.027Z" fill="#FFD1A6"/>
<rect width="3.71094" height="6.80339" transform="matrix(-1 0 0 1 1068.69 413.14)" fill="#C2CBEC"/>
<rect width="2.7832" height="6.80339" transform="matrix(-1 0 0 1 1100.54 413.295)" fill="#FFD9A0"/>
<rect width="2.7832" height="6.80339" transform="matrix(-1 0 0 1 1090.02 413.295)" fill="#FFD9A0"/>
<rect width="25.9766" height="18.8639" transform="matrix(-1 0 0 1 927.67 405.254)" fill="white"/>
<path d="M914.682 393.503H888.396L901.384 405.409H927.67L914.682 393.503Z" fill="#B59391"/>
<path d="M901.694 405.409L888.705 393.503L875.408 405.409V423.963H901.694V405.409Z" fill="#FFD1A6"/>
<rect width="3.71094" height="6.80339" transform="matrix(-1 0 0 1 889.942 412.521)" fill="#C2CBEC"/>
<rect width="2.7832" height="6.80339" transform="matrix(-1 0 0 1 921.794 412.676)" fill="#FFD9A0"/>
<rect width="2.7832" height="6.80339" transform="matrix(-1 0 0 1 911.28 412.676)" fill="#FFD9A0"/>
<rect width="64.3229" height="44.8405" transform="matrix(-1 0 0 1 1049.82 379.123)" fill="white"/>
<rect width="64.3229" height="44.8405" transform="matrix(-1 0 0 1 1049.82 379.277)" fill="white"/>
<path d="M1036.83 367.217H972.51L985.499 379.123H1049.82L1036.83 367.217Z" fill="#B95C5C"/>
<path d="M985.499 379.123L972.51 367.217L959.213 379.123V423.963H985.499V379.123Z" fill="#FFD1A6"/>
<rect width="3.71094" height="6.80339" transform="matrix(-1 0 0 1 974.366 409.428)" fill="#C2CBEC"/>
<rect width="3.71094" height="6.80339" transform="matrix(-1 0 0 1 974.366 394.894)" fill="#C2CBEC"/>
<rect width="3.40169" height="6.80339" transform="matrix(-1 0 0 1 1020.75 394.74)" fill="#FFD9A0"/>
<rect width="3.40169" height="6.80339" transform="matrix(-1 0 0 1 1020.75 409.274)" fill="#FFD9A0"/>
<rect width="3.09245" height="6.80339" transform="matrix(-1 0 0 1 1009.31 394.74)" fill="#FFD9A0"/>
<rect width="3.09245" height="6.80339" transform="matrix(-1 0 0 1 1009.31 409.274)" fill="#FFD9A0"/>
<rect width="3.09245" height="6.80339" transform="matrix(-1 0 0 1 997.869 409.274)" fill="#FFD9A0"/>
<rect width="3.09245" height="6.80339" transform="matrix(-1 0 0 1 997.869 394.74)" fill="#FFD9A0"/>
<rect width="3.09245" height="6.80339" transform="matrix(-1 0 0 1 1043.33 395.049)" fill="#FFD9A0"/>
<rect width="3.09245" height="6.80339" transform="matrix(-1 0 0 1 1043.33 409.583)" fill="#FFD9A0"/>
<rect width="3.09245" height="6.80339" transform="matrix(-1 0 0 1 1031.89 409.583)" fill="#FFD9A0"/>
<rect width="3.09245" height="6.80339" transform="matrix(-1 0 0 1 1031.89 395.049)" fill="#FFD9A0"/>
<rect x="1045.5" y="419.168" width="1.83256" height="4.94977" fill="#9B6262"/>
<path d="M1051.37 410.46C1051.37 416.586 1049.15 421.551 1046.42 421.551C1043.69 421.551 1041.47 416.586 1041.47 410.46C1041.47 404.335 1043.69 393.503 1046.42 393.503C1049.15 393.503 1051.37 404.335 1051.37 410.46Z" fill="#45B464"/>
<path d="M837.37 412.625C837.37 418.75 835.155 423.716 832.422 423.716C829.69 423.716 827.474 418.75 827.474 412.625C827.474 406.499 829.69 395.667 832.422 395.667C835.155 395.667 837.37 406.499 837.37 412.625Z" fill="#45B464"/>
<path d="M942.205 415.975C942.205 419.96 940.751 423.19 938.958 423.19C937.164 423.19 935.71 419.96 935.71 415.975C935.71 411.991 937.164 404.945 938.958 404.945C940.751 404.945 942.205 411.991 942.205 415.975Z" fill="#45B464"/>
<path d="M950.863 415.975C950.863 419.96 949.41 423.19 947.616 423.19C945.823 423.19 944.369 419.96 944.369 415.975C944.369 411.991 945.823 404.945 947.616 404.945C949.41 404.945 950.863 411.991 950.863 415.975Z" fill="#45B464"/>
<path d="M1625.99 297.701C1589.04 279.725 1514.06 322.868 1564.05 421.138L1898.77 441.511C2045.84 440.313 2367.81 438.635 2479.09 441.511C2424.75 433.122 2406.28 421.138 2370.41 406.757C2369.33 375.598 2332.38 328.86 2287.82 360.019C2300.86 315.677 2233.48 312.082 2187.84 297.701C2207.84 276.609 2179.51 260.949 2162.85 255.756C2193.47 235.019 2152.29 185.575 2109.6 198.232C2104.88 158.149 2048.41 107.884 1987.88 119.136C1989.62 92.2918 1968.32 98.3639 1957.45 104.755C1906.88 70.9245 1858.62 71.7116 1820.64 86.4963C1807.36 82.3593 1793.13 86.4963 1790.28 97.813C1737.85 92.4663 1699.2 145.242 1699.2 181.647C1669.39 185.784 1660.3 224.672 1671.64 242.574C1652.71 236.256 1614.76 267.697 1625.99 297.701Z" fill="white"/>
<path d="M1626.81 310.471C1595.71 293.884 1532.6 333.693 1574.67 424.37L1856.38 443.169C1980.17 442.063 2251.15 440.515 2344.81 443.169C2299.07 435.428 2283.52 424.37 2253.34 411.1C2252.43 382.349 2221.33 339.222 2183.83 367.974C2194.8 327.058 2138.1 323.741 2099.68 310.471C2116.51 291.009 2092.67 276.56 2078.64 271.768C2104.42 252.633 2069.76 207.01 2033.83 218.689C2029.85 181.703 1982.33 135.322 1931.39 145.705C1932.85 120.935 1914.92 126.538 1905.78 132.435C1863.21 101.218 1822.6 101.945 1790.63 115.587C1779.45 111.77 1767.47 115.587 1765.08 126.029C1720.95 121.096 1688.42 169.793 1688.42 203.385C1663.33 207.203 1655.68 243.085 1665.22 259.604C1649.29 253.774 1617.35 282.786 1626.81 310.471Z" fill="#EFE1D4"/>
<path d="M399.281 191.441C363.682 111.048 295.283 80.7766 171.435 121.098C152.613 90.4783 30.7656 145.098 24.8219 191.441C14.206 183.166 -19.7566 198.062 -14.5224 224.06C-40.56 224.06 -67.3071 251.853 -50.4662 275.703C-91.4123 269.083 -113.669 289.921 -128.726 356.127C-143.784 422.332 -48.8643 403.366 14.206 391.228H814.637C798.787 377.711 761.143 349.519 737.367 344.885C739.349 308.472 689.817 235.646 629.389 248.059C624.435 189.302 496.644 193.44 462.962 207.509C448.103 182.682 425.037 181.51 399.281 191.441Z" fill="white"/>
<path d="M360.976 224.613C331.248 144.432 251.621 89.9194 148.197 130.134C132.479 99.5954 30.7258 154.07 25.7622 200.291C16.8971 192.037 -11.4647 206.894 -7.09365 232.824C-28.8373 232.824 -51.1735 260.543 -37.1099 284.33C-71.3035 277.727 -89.8895 298.511 -102.464 364.541C-115.038 430.571 -35.7721 411.655 16.8971 399.549H685.327C672.091 386.068 640.655 357.951 620.8 353.328C622.455 317.012 581.092 244.379 530.628 256.76C526.492 198.158 451.402 210.582 423.275 224.613C410.866 199.852 379.176 203.153 360.976 224.613Z" fill="#EFE1D4"/>
<path d="M1113.32 392.235L1248.66 323.807C1279 308.467 1313.5 303.401 1346.97 309.374L1356.96 311.157C1477.91 332.739 1602.4 322.035 1717.88 280.124C1757.73 265.664 1801.08 263.945 1841.94 275.204L2091.99 344.104L2193.65 550.281C2220.7 605.157 2178.29 668.767 2117.23 664.887L617.356 569.587L724.583 418.452H1003.36C1041.56 418.452 1079.23 409.472 1113.32 392.235Z" fill="#66C882"/>
<path d="M1283.05 488.117C1271.31 481.92 1246.66 485.019 1256.05 498.651C1249 542.028 1267.79 543.887 1407.48 548.844C1519.24 552.81 1551.88 542.028 1567.14 527.776C1582.4 513.523 1567.14 494.314 1567.14 494.314C1574.07 486.884 1561.13 477.58 1551.88 478.822C1549.02 474.307 1548.94 469.293 1531.92 471.386C1523.7 467.668 1504.72 464.905 1492.01 472.625C1488.48 464.57 1463.83 463.33 1453.27 468.907C1443.87 462.091 1421.57 465.189 1421.57 472.625C1421.57 467.668 1402.79 462.711 1395.74 467.668C1379.31 463.33 1347.64 466.412 1342.92 475.104C1335.87 465.809 1318.27 472.625 1318.27 478.822C1308.87 471.386 1278.35 478.822 1283.05 488.117Z" fill="#45B464"/>
<rect x="353.579" y="498.311" width="3.68405" height="9.91714" fill="#9B6262"/>
<path d="M365.367 480.864C365.367 493.137 360.914 503.086 355.421 503.086C349.927 503.086 345.474 493.137 345.474 480.864C345.474 468.592 349.927 446.889 355.421 446.889C360.914 446.889 365.367 468.592 365.367 480.864Z" fill="#45B464"/>
<path d="M-221.501 487.847V547.112L1386.59 567.91L1349.16 528.564C1306.28 483.494 1246.8 457.981 1184.6 457.981H1025.88C977.17 457.981 929.753 442.322 890.624 413.317L793.585 341.384C674.172 252.865 521.337 222.607 377.205 258.95L315.633 274.476L34.619 313.796C22.4901 315.493 10.5184 318.168 -1.17912 321.796L-128.158 361.172C-183.666 378.386 -221.501 429.732 -221.501 487.847Z" fill="#8EE480"/>
<rect x="325.396" y="524.836" width="3.68405" height="9.91714" fill="#9B6262"/>
<path d="M337.184 507.389C337.184 519.662 332.731 529.611 327.237 529.611C321.744 529.611 317.291 519.662 317.291 507.389C317.291 495.117 321.744 473.414 327.237 473.414C332.731 473.414 337.184 495.117 337.184 507.389Z" fill="#45B464"/>
<rect x="308.817" y="529.81" width="3.68405" height="9.91714" fill="#9B6262"/>
<path d="M320.606 512.363C320.606 524.636 316.153 534.585 310.659 534.585C305.166 534.585 300.712 524.636 300.712 512.363C300.712 500.09 305.166 478.388 310.659 478.388C316.153 478.388 320.606 500.09 320.606 512.363Z" fill="#45B464"/>
<rect x="264.057" y="524.836" width="3.68405" height="9.91714" fill="#9B6262"/>
<path d="M275.845 507.389C275.845 519.662 271.392 529.611 265.898 529.611C260.405 529.611 255.951 519.662 255.951 507.389C255.951 495.117 260.405 473.414 265.898 473.414C271.392 473.414 275.845 495.117 275.845 507.389Z" fill="#45B464"/>
<rect x="1699.73" y="463.497" width="3.68405" height="9.91714" fill="#9B6262"/>
<path d="M1711.52 446.05C1711.52 458.323 1707.06 468.272 1701.57 468.272C1696.08 468.272 1691.62 458.323 1691.62 446.05C1691.62 433.777 1696.08 412.075 1701.57 412.075C1707.06 412.075 1711.52 433.777 1711.52 446.05Z" fill="#45B464"/>
<rect x="1699.73" y="463.497" width="3.68405" height="9.91714" fill="#9B6262"/>
<path d="M1711.52 446.05C1711.52 458.323 1707.06 468.272 1701.57 468.272C1696.08 468.272 1691.62 458.323 1691.62 446.05C1691.62 433.777 1696.08 412.075 1701.57 412.075C1707.06 412.075 1711.52 433.777 1711.52 446.05Z" fill="#45B464"/>
<rect x="1757.38" y="466.177" width="2.76303" height="7.23684" fill="#9B6262"/>
<path d="M1766.23 453.446C1766.23 462.402 1762.89 469.662 1758.77 469.662C1754.65 469.662 1751.31 462.402 1751.31 453.446C1751.31 444.49 1754.65 428.653 1758.77 428.653C1762.89 428.653 1766.23 444.49 1766.23 453.446Z" fill="#45B464"/>
<path d="M818.707 441.567C814.388 437.193 805.319 439.38 808.774 449.003C806.183 479.622 813.092 480.934 864.483 484.433C905.596 487.233 917.602 479.622 923.216 469.561C928.83 459.501 923.216 445.941 923.216 445.941C925.765 440.697 921.008 434.129 917.602 435.006C916.553 431.819 916.521 428.28 910.26 429.757C907.237 427.132 900.255 425.182 895.577 430.632C894.281 424.945 885.212 424.07 881.326 428.007C877.871 423.196 869.666 425.383 869.666 430.632C869.666 427.132 862.756 423.633 860.165 427.132C854.119 424.071 842.469 426.245 840.731 432.381C838.14 425.82 831.662 430.632 831.662 435.006C828.207 429.757 816.979 435.006 818.707 441.567Z" fill="#45B464"/>
<path d="M599.874 473.066C595.555 468.691 586.486 470.879 589.941 480.501C587.35 511.12 594.26 512.433 645.651 515.932C686.764 518.731 698.769 511.12 704.383 501.06C709.997 490.999 704.383 477.44 704.383 477.44C706.933 472.195 702.175 465.628 698.769 466.504C697.72 463.318 697.689 459.778 691.428 461.255C688.405 458.631 681.422 456.68 676.744 462.13C675.449 456.444 666.38 455.569 662.493 459.506C659.038 454.694 650.833 456.881 650.833 462.13C650.833 458.631 643.923 455.132 641.332 458.631C635.286 455.569 623.637 457.744 621.899 463.88C619.308 457.319 612.83 462.13 612.83 466.504C609.375 461.255 598.147 466.504 599.874 473.066Z" fill="#45B464"/>
<path d="M587.644 500.992C474.063 540.337 -156.846 494.561 -221.501 500.992C-221.501 590.715 -233.94 1093.01 -204.923 1143.6C-175.906 1194.18 2113.06 1152.99 2191.82 1103.81C2270.58 1054.63 2232.07 574.966 2179.85 525.231C2148.8 495.657 1874 518.557 1808.5 487.643C1743.01 456.729 1654.32 480.961 1496 500.992C1364.04 517.689 1090.06 526.988 983.936 487.643C877.816 448.298 701.226 461.647 587.644 500.992Z" fill="#B8F08C"/>
<mask id="mask1_687_4303" style="mask-type:alpha" maskUnits="userSpaceOnUse" x="-223" y="463" width="2457" height="704">
<path d="M587.645 500.992C474.064 540.337 -77.2461 451.811 -209.896 500.992C-209.896 595.689 -238.913 1093.01 -209.896 1143.6C-180.879 1194.18 2113.06 1152.99 2191.82 1103.81C2270.58 1054.63 2219.18 561.415 2191.82 528.393C2164.46 495.372 1874 518.557 1808.5 487.643C1743 456.729 1654.32 480.961 1496 500.992C1364.04 517.689 1090.06 526.988 983.936 487.643C877.816 448.298 701.226 461.647 587.645 500.992Z" fill="#B8F08C"/>
</mask>
<g mask="url(#mask1_687_4303)">
<path d="M1114.18 529.149C1199.75 538.131 1270.89 520.026 1284.16 516.517H1292.45C1276.7 532.657 1183 540.376 1133.25 538.973C1083.5 537.569 1093.9 561.655 1197.93 557.919C1334.74 553.007 1319.81 615.461 1270.89 615.461C1221.97 615.461 1144.03 618.97 1008.88 615.461C873.727 611.953 820.452 639.255 908.552 648.443C1083.5 666.688 1403.99 697.154 1465 737.563C1541.29 788.087 1574.36 981.063 1133.25 1025.27C692.143 1069.48 881.852 1213.5 552.017 1273.68C-168.932 1405.24 -419.288 1111.05 -242.311 967.73C-152.135 894.703 764.279 796.508 908.552 800.718C1052.82 804.929 1182.26 750.194 1139.15 729.844C1096.03 709.493 885.383 711.649 794.129 666.688C719.621 629.977 789.244 571.954 892.888 584.585C996.532 597.216 1081.84 597.216 1211.28 597.216C1333.26 597.216 1276.79 566.34 1186.32 566.34C1066.92 566.34 1007.22 517.921 1114.18 529.149Z" fill="#F8FFCD"/>
</g>
<path d="M1230.2 523.905H1319.97C1334.97 523.905 1347.13 536.063 1347.13 551.061V623.872H1230.2V523.905Z" fill="white"/>
<path d="M1180.31 519.429L1224.99 503.017V623.872H1180.31V519.429Z" fill="#FF4A4A"/>
<path d="M1180.31 523.159H1224.99H1267.99C1284.96 523.159 1298.72 536.917 1298.72 553.888V623.872H1180.31V523.159Z" fill="#FF4A4A"/>
<rect x="1224.99" y="590.301" width="28.3003" height="33.5709" fill="#A6AFC7"/>
<rect x="1224.99" y="590.301" width="28.3003" height="4.27266" fill="#FF4444"/>
<rect x="1238.01" y="594.574" width="2.26402" height="29.2982" fill="#4B4B4B"/>
<path d="M1225.36 505.628V498.167L1177.7 516.445V523.905L1225.36 505.628Z" fill="#CF1B1B"/>
<rect x="1224.99" y="504.508" width="50.6426" height="18.6505" fill="white"/>
<rect x="1224.99" y="498.54" width="50.6426" height="7.4602" fill="#FF9898"/>
<path d="M1355.48 504.074H1444.1C1459.09 504.074 1471.25 516.232 1471.25 531.23V624.133H1355.48V504.074Z" fill="white"/>
<rect x="1319.75" y="504.074" width="55.0268" height="120.058" fill="#FF4A4A"/>
<path d="M1319.75 504.074H1406.93C1421.54 504.074 1433.38 515.912 1433.38 530.516V580.54H1319.75V504.074Z" fill="#FF4A4A"/>
<rect x="1374.78" y="527.657" width="23.5829" height="39.3049" fill="#A6AFC7"/>
<rect x="1374.06" y="580.54" width="59.3146" height="43.5927" fill="#D6BDBD"/>
<rect x="1374.06" y="580.54" width="59.3146" height="8.57561" fill="#7097FB"/>
<rect x="1374.78" y="521.226" width="23.5829" height="8.57561" fill="#7097FB"/>
<path d="M1523.12 523.22H1616.33C1632.11 523.22 1644.89 536.008 1644.89 551.783V624.693H1523.12V523.22Z" fill="white"/>
<path d="M1459.61 525.85L1500.2 498.415V624.693H1459.61V525.85Z" fill="#FF4A4A"/>
<path d="M1459.61 523.22H1576.87C1593.06 523.22 1606.18 536.344 1606.18 552.534V624.693H1459.61V523.22Z" fill="#FF4A4A"/>
<rect x="1500.2" y="583.352" width="24.8047" height="41.3411" fill="#9CB09C"/>
<rect x="1549.81" y="583.352" width="24.8047" height="41.3411" fill="#9CB09C"/>
<path d="M1499.82 498.791V491.65L1458.48 520.52V526.978L1499.82 498.791Z" fill="#AC1F00"/>
<rect x="1496.44" y="578.842" width="30.8179" height="4.50994" fill="#E38800"/>
<rect x="1546.8" y="578.842" width="30.8179" height="4.50994" fill="#E38800"/>
<rect x="1499.82" y="491.65" width="57.1259" height="31.5696" fill="white"/>
<rect x="1499.82" y="491.65" width="57.1259" height="6.76491" fill="#FFC165"/>
<path d="M727.692 748.959C788.724 776.932 842.181 781.583 881.689 759.813L778.075 845.191H621.411L512.824 792.14L550.954 695.987L561.968 741.616C565.638 756.823 579.914 767.032 595.491 765.59L657.883 759.813L646.278 663.659H671.146C682.623 699.683 685.774 708.191 718.582 742.443C721.182 745.157 724.275 747.393 727.692 748.959Z" fill="#888A9D"/>
<path d="M381.156 827.169C452.442 809.143 538.987 792.24 629.239 771.249C637.953 769.223 647.099 770.029 655.304 773.594L822.444 846.224C857.892 861.628 854.823 912.884 817.789 923.947L651.342 973.672C588.796 986.264 491.376 968.154 388.022 940.468C314.045 920.651 306.907 845.943 381.156 827.169Z" fill="#FFC165" fill-opacity="0.78"/>
<path d="M644.619 874.202C616.234 874.202 599.027 895.665 596.54 913.826C594.053 931.987 596.53 954.275 613.119 965.006C629.708 975.738 638.816 975.738 659.539 979.865C680.263 983.993 707.765 958.281 710.104 930.336C710.104 908.818 698.816 888.015 679.434 880.806C667 876.181 661.58 874.202 644.619 874.202Z" fill="#454545"/>
<path d="M701.815 926.428C701.815 945.917 689.471 966.128 669.486 967.388C649.502 968.649 637.158 957.26 637.158 937.771C637.158 918.281 649.502 899.331 669.486 896.81C689.471 894.289 701.815 906.938 701.815 926.428Z" fill="#E4E4E4"/>
<path d="M829.358 846.019C803.442 846.019 787.731 865.47 785.46 881.928C783.19 898.387 785.45 918.585 800.597 928.311C815.744 938.036 824.06 938.036 842.981 941.776C861.902 945.517 887.013 922.215 889.149 896.89C889.149 877.39 878.842 858.538 861.146 852.004C849.793 847.813 844.844 846.019 829.358 846.019Z" fill="#454545"/>
<path d="M881.581 893.348C881.581 911.011 870.31 929.327 852.063 930.469C833.816 931.611 822.546 921.29 822.546 903.628C822.546 885.965 833.816 868.792 852.063 866.507C870.31 864.223 881.581 875.686 881.581 893.348Z" fill="#E4E4E4"/>
<path d="M492.097 821.152C463.714 821.152 446.507 842.704 444.021 860.94C441.534 879.176 444.01 901.556 460.599 912.332C477.188 923.108 486.295 923.108 507.018 927.253C527.741 931.397 555.242 905.579 557.581 877.518C557.581 855.911 546.293 835.022 526.912 827.783C514.478 823.139 509.058 821.152 492.097 821.152Z" fill="#454545"/>
<path d="M549.292 873.594C549.292 893.164 536.949 913.458 516.965 914.724C496.98 915.99 484.637 904.554 484.637 884.984C484.637 865.413 496.98 846.384 516.965 843.853C536.949 841.322 549.292 854.023 549.292 873.594Z" fill="#E4E4E4"/>
<path d="M763.284 770.556L767.626 760.036C770.958 751.962 779.036 746.881 787.757 747.375C802.008 748.181 811.104 762.929 805.429 776.026L800.904 786.469C797.667 793.938 790.304 798.772 782.164 798.772C767.619 798.772 757.736 784.001 763.284 770.556Z" stroke="black" stroke-width="14.9204"/>
<path d="M717.152 755.817C709.194 775.048 672.943 792.566 655.812 798.921C644.76 802.236 618.677 806.878 602.762 798.921C597.789 817.157 638.405 844.511 672.391 835.393C674.38 844.676 691.455 856.944 699.745 861.918C704.165 871.312 715.494 890.267 725.441 890.93C735.388 891.593 748.374 885.127 753.624 881.812V855.286C763.018 845.063 782.138 819.478 783.465 798.921C805.016 798.921 809.161 780.685 805.845 771.567C803.193 764.272 785.399 768.527 776.833 771.567C777.11 764.106 776.833 745.87 773.518 732.608C825.69 725.148 796.727 672.097 758.597 675.413C720.467 678.729 727.099 731.779 717.152 755.817Z" fill="#38A664"/>
<circle cx="789.68" cy="701.789" r="3.31564" fill="black"/>
<path fill-rule="evenodd" clip-rule="evenodd" d="M718.519 632.263C816.662 628.948 865.513 706.589 877.67 745.824C955.22 757.118 949.336 797.818 944.5 831.276C944.012 834.654 943.534 837.957 943.154 841.149C939.009 875.963 903.366 898.344 896.735 885.91C880.986 856.069 833.738 872.647 824.62 903.317C815.502 933.987 740.071 955.539 718.519 932.329C718.519 876.792 658.009 877.621 645.575 915.751C634.547 949.569 594.714 934.021 546.507 915.205C531.765 909.451 516.24 903.391 500.516 898.344C433.374 876.792 457.412 814.624 466.53 806.335C467.677 805.293 468.98 804.29 470.414 803.187C480.389 795.513 496.693 782.97 510.463 718.47C526.212 644.697 595.84 636.408 718.519 632.263ZM795.125 802.151C837.388 786.065 852.276 774.533 857.981 766.291C860.492 762.664 860.388 757.997 859.12 753.771C849.62 722.101 830.515 682.763 799.828 669.248C773.867 657.814 723.722 665.315 691.223 679.208C680.664 683.722 677.419 696.199 682.08 706.694C696.664 739.541 702.463 763.351 702.16 797.811C702.095 805.104 705.35 812.144 712.401 814.005C725.568 817.481 751.441 818.777 795.125 802.151ZM577.991 690.487L605.236 695.209C614.161 696.756 621.371 703.355 623.701 712.109L637.728 764.817C642.128 781.35 627.737 796.799 610.934 793.581L555.611 782.987C542.101 780.4 533.792 766.698 537.745 753.523L551.796 706.686C555.171 695.436 566.418 688.481 577.991 690.487Z" fill="#FCFF56"/>
<path fill-rule="evenodd" clip-rule="evenodd" d="M627.952 903.051C628.812 893.316 629.647 883.864 631.448 875.86C633.542 866.554 636.228 856.342 639.058 845.582C654.744 785.949 674.86 709.474 623.159 676.922C603.411 664.488 591.903 663.107 564.306 664.488C569.541 646.99 634.151 638.8 671.696 634.322C578.007 639.844 524.084 654.666 510.463 718.47C496.693 782.97 480.389 795.513 470.414 803.187L470.414 803.187C468.98 804.29 467.676 805.293 466.53 806.335C457.412 814.624 433.374 876.792 500.516 898.344C516.239 903.391 531.764 909.45 546.506 915.204L546.507 915.205C577.444 927.28 604.933 938.01 623.573 935.209C625.994 925.228 626.989 913.962 627.952 903.051ZM605.236 695.209L577.991 690.487C566.418 688.481 555.171 695.436 551.796 706.686L537.745 753.523C533.793 766.698 542.101 780.401 555.611 782.988L610.934 793.581C627.737 796.799 642.128 781.35 637.728 764.817L623.701 712.109C621.371 703.355 614.161 696.756 605.236 695.209Z" fill="#FFCBA5" fill-opacity="0.41"/>
<path d="M943.947 783.851C958.039 825.297 930.685 851.822 902.502 880.005C938.38 809.602 937.873 778.606 878.463 747.379C894.765 747.379 932.674 750.695 943.947 783.851Z" fill="white"/>
<path d="M817.124 670.29C839.007 677.585 864.372 717.538 874.319 736.603C851.938 687.698 827.9 660.344 777.336 641.279C781.481 647.91 795.241 662.996 817.124 670.29Z" fill="white"/>
<path d="M774.02 809.547L841.991 714.223C848.07 721.13 860.559 743.4 858.569 760.642C856.083 782.193 788.941 804.021 774.02 809.547Z" fill="white" fill-opacity="0.63"/>
<path d="M555.188 782.193L621.501 714.223L633.106 748.208L597.462 791.311L555.188 782.193Z" fill="white" fill-opacity="0.63"/>
<path d="M597.823 849.236L606.112 851.399C612.682 853.113 617.267 859.046 617.267 865.836V871.051C617.267 881.194 607.364 888.38 597.721 885.236L589.431 882.533C583.292 880.531 579.137 874.806 579.137 868.348V863.674C579.137 853.904 588.37 846.77 597.823 849.236Z" fill="#99B6FF"/>
<path d="M485.024 814.03L487.51 814.987C493.272 817.203 497.075 822.739 497.075 828.913V830.791C497.075 840.83 487.361 848.004 477.766 845.052L475.28 844.287C469.019 842.36 464.747 836.576 464.747 830.026V827.956C464.747 817.485 475.251 810.272 485.024 814.03Z" fill="#99B6FF"/>
<ellipse cx="369.841" cy="927.102" rx="32.9135" ry="14.7697" fill="#FDCF7C"/>
<ellipse cx="270.4" cy="934.487" rx="16.1066" ry="7.38484" fill="#FDCF7C"/>
<ellipse cx="403.74" cy="902.28" rx="32.9135" ry="34.7087" fill="white"/>
<ellipse cx="306.4" cy="919.265" rx="16.8069" ry="17.7236" fill="white"/>
<rect width="116.511" height="82.3054" transform="matrix(-1 0 0 1 1169.41 377.562)" fill="white"/>
<rect width="116.511" height="82.3054" transform="matrix(-1 0 0 1 1169.41 377.846)" fill="white"/>
<path d="M1145.88 355.709H1029.37L1052.9 377.562H1169.41L1145.88 355.709Z" fill="#F8A49F"/>
<path d="M1052.9 377.562L1029.37 355.709L1005.29 377.562V459.868H1052.9V377.562Z" fill="#FFD1A6"/>
<rect width="6.72181" height="12.4877" transform="matrix(-1 0 0 1 1032.73 433.189)" fill="#C2CBEC"/>
<rect width="6.72181" height="12.4877" transform="matrix(-1 0 0 1 1032.73 406.511)" fill="#C2CBEC"/>
<rect width="6.16167" height="12.4877" transform="matrix(-1 0 0 1 1116.76 406.227)" fill="#FFD9A0"/>
<rect width="6.16167" height="12.4877" transform="matrix(-1 0 0 1 1116.76 432.906)" fill="#FFD9A0"/>
<rect width="5.60151" height="12.4877" transform="matrix(-1 0 0 1 1096.03 406.227)" fill="#FFD9A0"/>
<rect width="5.60151" height="12.4877" transform="matrix(-1 0 0 1 1096.03 432.906)" fill="#FFD9A0"/>
<rect width="5.60151" height="12.4877" transform="matrix(-1 0 0 1 1075.31 432.906)" fill="#FFD9A0"/>
<rect width="5.60151" height="12.4877" transform="matrix(-1 0 0 1 1075.31 406.227)" fill="#FFD9A0"/>
<rect width="5.60151" height="12.4877" transform="matrix(-1 0 0 1 1157.65 406.795)" fill="#FFD9A0"/>
<rect width="5.60151" height="12.4877" transform="matrix(-1 0 0 1 1157.65 433.473)" fill="#FFD9A0"/>
<rect width="5.60151" height="12.4877" transform="matrix(-1 0 0 1 1136.92 433.473)" fill="#FFD9A0"/>
<rect width="5.60151" height="12.4877" transform="matrix(-1 0 0 1 1136.92 406.795)" fill="#FFD9A0"/>
<rect width="46.419" height="33.709" transform="matrix(-1 0 0 1 1193.17 426.443)" fill="white"/>
<path d="M1169.96 405.443H1122.99L1146.2 426.719H1193.17L1169.96 405.443Z" fill="#A3AAEE"/>
<path d="M1146.75 426.719L1123.54 405.443L1099.78 426.719V459.875H1146.75V426.719Z" fill="#FFD1A6"/>
<rect width="6.63128" height="12.1574" transform="matrix(-1 0 0 1 1125.75 439.429)" fill="#C2CBEC"/>
<rect width="4.97346" height="12.1574" transform="matrix(-1 0 0 1 1182.67 439.705)" fill="#FFD9A0"/>
<rect width="4.97346" height="12.1574" transform="matrix(-1 0 0 1 1163.88 439.705)" fill="#FFD9A0"/>
<rect x="799.379" y="546.17" width="4.36791" height="11.7934" fill="#9B6262"/>
<path d="M813.356 525.422C813.356 540.017 808.076 551.848 801.563 551.848C795.05 551.848 789.77 540.017 789.77 525.422C789.77 510.827 795.05 485.019 801.563 485.019C808.076 485.019 813.356 510.827 813.356 525.422Z" fill="#45B464"/>
<rect x="413.26" y="503.285" width="3.68405" height="9.91714" fill="#9B6262"/>
<path d="M425.049 485.838C425.049 498.111 420.595 508.06 415.102 508.06C409.608 508.06 405.155 498.111 405.155 485.838C405.155 473.565 409.608 451.862 415.102 451.862C420.595 451.862 425.049 473.565 425.049 485.838Z" fill="#45B464"/>
<rect x="353.579" y="498.311" width="3.68405" height="9.91714" fill="#9B6262"/>
<path d="M365.367 480.864C365.367 493.137 360.914 503.086 355.421 503.086C349.927 503.086 345.474 493.137 345.474 480.864C345.474 468.592 349.927 446.889 355.421 446.889C360.914 446.889 365.367 468.592 365.367 480.864Z" fill="#45B464"/>
<rect x="353.579" y="498.311" width="3.68405" height="9.91714" fill="#9B6262"/>
<path d="M365.367 480.864C365.367 493.137 360.914 503.086 355.421 503.086C349.927 503.086 345.474 493.137 345.474 480.864C345.474 468.592 349.927 446.889 355.421 446.889C360.914 446.889 365.367 468.592 365.367 480.864Z" fill="#45B464"/>
<rect x="718.622" y="466.763" width="3.07739" height="8.30896" fill="#9B6262"/>
<path d="M728.47 452.145C728.47 462.428 724.75 470.764 720.161 470.764C715.572 470.764 711.852 462.428 711.852 452.145C711.852 441.863 715.572 423.679 720.161 423.679C724.75 423.679 728.47 441.863 728.47 452.145Z" fill="#45B464"/>
<rect x="692.097" y="478.368" width="3.07739" height="8.30896" fill="#9B6262"/>
<path d="M701.945 463.75C701.945 474.033 698.225 482.368 693.636 482.368C689.047 482.368 685.327 474.033 685.327 463.75C685.327 453.467 689.047 435.284 693.636 435.284C698.225 435.284 701.945 453.467 701.945 463.75Z" fill="#45B464"/>
<rect x="1204.51" y="462.594" width="2.77958" height="7.50487" fill="#9B6262"/>
<path d="M1213.41 449.391C1213.41 458.678 1210.05 466.207 1205.9 466.207C1201.76 466.207 1198.4 458.678 1198.4 449.391C1198.4 440.103 1201.76 423.679 1205.9 423.679C1210.05 423.679 1213.41 440.103 1213.41 449.391Z" fill="#45B464"/>
<rect x="1225.92" y="461.789" width="3.07739" height="8.30896" fill="#9B6262"/>
<path d="M1235.76 447.172C1235.76 457.454 1232.04 465.79 1227.45 465.79C1222.87 465.79 1219.15 457.454 1219.15 447.172C1219.15 436.889 1222.87 418.706 1227.45 418.706C1232.04 418.706 1235.76 436.889 1235.76 447.172Z" fill="#45B464"/>
<rect x="1482.1" y="447.201" width="1.92877" height="5.38855" fill="#9B6262"/>
<path d="M1488.27 437.722C1488.27 444.39 1485.94 449.796 1483.07 449.796C1480.19 449.796 1477.86 444.39 1477.86 437.722C1477.86 431.053 1480.19 419.261 1483.07 419.261C1485.94 419.261 1488.27 431.053 1488.27 437.722Z" fill="#45B464"/>
<rect x="1181.15" y="461.789" width="3.07739" height="8.30896" fill="#9B6262"/>
<path d="M1191 447.172C1191 457.454 1187.28 465.79 1182.69 465.79C1178.1 465.79 1174.38 457.454 1174.38 447.172C1174.38 436.889 1178.1 418.706 1182.69 418.706C1187.28 418.706 1191 436.889 1191 447.172Z" fill="#45B464"/>
<rect x="993.076" y="413.345" width="1.98541" height="5.36062" fill="#9B6262"/>
<path d="M999.429 403.915C999.429 410.549 997.029 415.926 994.069 415.926C991.108 415.926 988.708 410.549 988.708 403.915C988.708 397.281 991.108 385.55 994.069 385.55C997.029 385.55 999.429 397.281 999.429 403.915Z" fill="#45B464"/>
<rect x="993.076" y="413.345" width="1.98541" height="5.36062" fill="#9B6262"/>
<path d="M999.429 403.915C999.429 410.549 997.029 415.926 994.069 415.926C991.108 415.926 988.708 410.549 988.708 403.915C988.708 397.281 991.108 385.55 994.069 385.55C997.029 385.55 999.429 397.281 999.429 403.915Z" fill="#45B464"/>
<rect x="993.076" y="413.345" width="1.98541" height="5.36062" fill="#9B6262"/>
<path d="M999.429 403.915C999.429 410.549 997.029 415.926 994.069 415.926C991.108 415.926 988.708 410.549 988.708 403.915C988.708 397.281 991.108 385.55 994.069 385.55C997.029 385.55 999.429 397.281 999.429 403.915Z" fill="#45B464"/>
<rect x="993.076" y="413.345" width="1.98541" height="5.36062" fill="#9B6262"/>
<path d="M999.429 403.915C999.429 410.549 997.029 415.926 994.069 415.926C991.108 415.926 988.708 410.549 988.708 403.915C988.708 397.281 991.108 385.55 994.069 385.55C997.029 385.55 999.429 397.281 999.429 403.915Z" fill="#45B464"/>
<rect x="668.143" y="270.772" width="1.98541" height="5.36062" fill="#9B6262"/>
<path d="M674.496 261.342C674.496 267.976 672.096 273.354 669.136 273.354C666.175 273.354 663.775 267.976 663.775 261.342C663.775 254.708 666.175 242.977 669.136 242.977C672.096 242.977 674.496 254.708 674.496 261.342Z" fill="#45B464"/>
<rect x="705.282" y="374.63" width="1.53502" height="4.2885" fill="#9B6262"/>
<path d="M710.194 367.085C710.194 372.392 708.339 376.695 706.05 376.695C703.761 376.695 701.905 372.392 701.905 367.085C701.905 361.778 703.761 352.393 706.05 352.393C708.339 352.393 710.194 361.778 710.194 367.085Z" fill="#45B464"/>
<rect x="705.282" y="374.63" width="1.53502" height="4.2885" fill="#9B6262"/>
<path d="M710.194 367.085C710.194 372.392 708.339 376.695 706.05 376.695C703.761 376.695 701.905 372.392 701.905 367.085C701.905 361.778 703.761 352.393 706.05 352.393C708.339 352.393 710.194 361.778 710.194 367.085Z" fill="#45B464"/>
<rect x="578.612" y="357.466" width="1.22802" height="3.21637" fill="#9B6262"/>
<path d="M582.542 351.808C582.542 355.788 581.057 359.015 579.226 359.015C577.395 359.015 575.911 355.788 575.911 351.808C575.911 347.827 577.395 340.788 579.226 340.788C581.057 340.788 582.542 347.827 582.542 351.808Z" fill="#45B464"/>
<rect x="569.034" y="355.054" width="2.14903" height="5.62865" fill="#9B6262"/>
<path d="M575.911 345.151C575.911 352.117 573.313 357.764 570.108 357.764C566.904 357.764 564.306 352.117 564.306 345.151C564.306 338.186 566.904 325.868 570.108 325.868C573.313 325.868 575.911 338.186 575.911 345.151Z" fill="#45B464"/>
<rect x="642.285" y="359.709" width="1.53502" height="4.2885" fill="#9B6262"/>
<path d="M647.197 352.165C647.197 357.472 645.341 361.774 643.052 361.774C640.763 361.774 638.908 357.472 638.908 352.165C638.908 346.858 640.763 337.473 643.052 337.473C645.341 337.473 647.197 346.858 647.197 352.165Z" fill="#45B464"/>
<rect x="646.591" y="260.826" width="1.98541" height="5.36062" fill="#9B6262"/>
<path d="M652.945 251.395C652.945 258.029 650.545 263.407 647.584 263.407C644.623 263.407 642.223 258.029 642.223 251.395C642.223 244.761 644.623 233.03 647.584 233.03C650.545 233.03 652.945 244.761 652.945 251.395Z" fill="#45B464"/>
<rect x="633.676" y="262.434" width="1.38979" height="3.75243" fill="#9B6262"/>
<path d="M638.124 255.832C638.124 260.476 636.443 264.241 634.371 264.241C632.299 264.241 630.619 260.476 630.619 255.832C630.619 251.189 632.299 242.977 634.371 242.977C636.443 242.977 638.124 251.189 638.124 255.832Z" fill="#45B464"/>
<rect width="116.511" height="82.3054" transform="matrix(-1 0 0 1 635.592 433.928)" fill="white"/>
<rect width="116.511" height="82.3054" transform="matrix(-1 0 0 1 635.592 434.212)" fill="white"/>
<path d="M612.066 412.075H495.554L519.081 433.928H635.592L612.066 412.075Z" fill="#F8A49F"/>
<path d="M519.081 433.928L495.554 412.075L471.468 433.928V516.234H519.081V433.928Z" fill="#FFD1A6"/>
<rect width="6.72181" height="12.4877" transform="matrix(-1 0 0 1 498.916 489.555)" fill="#C2CBEC"/>
<rect width="6.72181" height="12.4877" transform="matrix(-1 0 0 1 498.916 462.877)" fill="#C2CBEC"/>
<rect width="6.16167" height="12.4877" transform="matrix(-1 0 0 1 582.938 462.593)" fill="#FFD9A0"/>
<rect width="6.16167" height="12.4877" transform="matrix(-1 0 0 1 582.938 489.271)" fill="#FFD9A0"/>
<rect width="5.60151" height="12.4877" transform="matrix(-1 0 0 1 562.212 462.593)" fill="#FFD9A0"/>
<rect width="5.60151" height="12.4877" transform="matrix(-1 0 0 1 562.212 489.271)" fill="#FFD9A0"/>
<rect width="5.60151" height="12.4877" transform="matrix(-1 0 0 1 541.487 489.271)" fill="#FFD9A0"/>
<rect width="5.60151" height="12.4877" transform="matrix(-1 0 0 1 541.487 462.593)" fill="#FFD9A0"/>
<rect width="5.60151" height="12.4877" transform="matrix(-1 0 0 1 623.829 463.161)" fill="#FFD9A0"/>
<rect width="5.60151" height="12.4877" transform="matrix(-1 0 0 1 623.829 489.839)" fill="#FFD9A0"/>
<rect width="5.60151" height="12.4877" transform="matrix(-1 0 0 1 603.104 489.839)" fill="#FFD9A0"/>
<rect width="5.60151" height="12.4877" transform="matrix(-1 0 0 1 603.104 463.161)" fill="#FFD9A0"/>
<rect width="32.5708" height="147.732" transform="matrix(-1 0 0 1 203.775 370.443)" fill="white"/>
<path d="M187.489 355.709H154.531L170.816 370.637H203.775L187.489 355.709Z" fill="#B59391"/>
<path d="M171.205 370.637L154.919 355.709L138.246 370.637V517.981H171.205V370.637Z" fill="#FFD1A6"/>
<rect width="4.65298" height="8.53046" transform="matrix(-1 0 0 1 156.469 379.555)" fill="#C2CBEC"/>
<rect width="4.65298" height="8.53046" transform="matrix(-1 0 0 1 156.469 402.82)" fill="#C2CBEC"/>
<rect width="4.65298" height="8.53046" transform="matrix(-1 0 0 1 156.469 426.085)" fill="#C2CBEC"/>
<rect width="4.65298" height="8.53046" transform="matrix(-1 0 0 1 156.469 449.35)" fill="#C2CBEC"/>
<rect width="13.2942" height="60.2988" transform="matrix(-1 0 0 1 778.386 310.33)" fill="white"/>
<path d="M771.739 304.316H758.287L764.934 310.409H778.386L771.739 304.316Z" fill="#B59391"/>
<path d="M765.092 310.409L758.445 304.316L751.64 310.409V370.55H765.092V310.409Z" fill="#FFD1A6"/>
<rect width="1.89917" height="3.48182" transform="matrix(-1 0 0 1 759.078 314.05)" fill="#C2CBEC"/>
<rect width="1.89917" height="3.48182" transform="matrix(-1 0 0 1 759.078 323.546)" fill="#C2CBEC"/>
<rect width="1.89917" height="3.48182" transform="matrix(-1 0 0 1 759.078 333.041)" fill="#C2CBEC"/>
<rect width="1.89917" height="3.48182" transform="matrix(-1 0 0 1 759.078 342.537)" fill="#C2CBEC"/>
<rect width="16.7044" height="75.7662" transform="matrix(-1 0 0 1 1335.56 350.003)" fill="white"/>
<path d="M1327.21 342.446H1310.31L1318.66 350.102H1335.56L1327.21 342.446Z" fill="#B59391"/>
<path d="M1318.86 350.102L1310.51 342.446L1301.96 350.102V425.67H1318.86V350.102Z" fill="#FFD1A6"/>
<rect width="2.38634" height="4.37495" transform="matrix(-1 0 0 1 1311.3 354.676)" fill="#C2CBEC"/>
<rect width="2.38634" height="4.37495" transform="matrix(-1 0 0 1 1311.3 366.608)" fill="#C2CBEC"/>
<rect width="2.38634" height="4.37495" transform="matrix(-1 0 0 1 1311.3 378.539)" fill="#C2CBEC"/>
<rect width="2.38634" height="4.37495" transform="matrix(-1 0 0 1 1311.3 390.471)" fill="#C2CBEC"/>
<rect width="80.6516" height="56.2235" transform="matrix(-1 0 0 1 282.101 461.758)" fill="white"/>
<rect width="80.6516" height="56.2235" transform="matrix(-1 0 0 1 282.101 461.952)" fill="white"/>
<path d="M265.815 446.829H185.164L201.449 461.758H282.101L265.815 446.829Z" fill="#B59391"/>
<path d="M201.449 461.758L185.164 446.829L168.491 461.758V517.981H201.449V461.758Z" fill="#FFD1A6"/>
<rect width="4.65298" height="8.53046" transform="matrix(-1 0 0 1 187.49 499.757)" fill="#C2CBEC"/>
<rect width="4.65298" height="8.53046" transform="matrix(-1 0 0 1 187.49 481.533)" fill="#C2CBEC"/>
<rect width="4.26523" height="8.53046" transform="matrix(-1 0 0 1 245.652 481.339)" fill="#FFD9A0"/>
<rect width="4.26523" height="8.53046" transform="matrix(-1 0 0 1 245.652 499.563)" fill="#FFD9A0"/>
<rect width="3.87748" height="8.53046" transform="matrix(-1 0 0 1 231.306 481.339)" fill="#FFD9A0"/>
<rect width="3.87748" height="8.53046" transform="matrix(-1 0 0 1 231.306 499.563)" fill="#FFD9A0"/>
<rect width="3.87748" height="8.53046" transform="matrix(-1 0 0 1 216.959 499.563)" fill="#FFD9A0"/>
<rect width="3.87748" height="8.53046" transform="matrix(-1 0 0 1 216.959 481.339)" fill="#FFD9A0"/>
<rect width="3.87748" height="8.53046" transform="matrix(-1 0 0 1 273.958 481.727)" fill="#FFD9A0"/>
<rect width="3.87748" height="8.53046" transform="matrix(-1 0 0 1 273.958 499.951)" fill="#FFD9A0"/>
<rect width="3.87748" height="8.53046" transform="matrix(-1 0 0 1 259.612 499.951)" fill="#FFD9A0"/>
<rect width="3.87748" height="8.53046" transform="matrix(-1 0 0 1 259.612 481.727)" fill="#FFD9A0"/>
<rect x="589.173" y="345.36" width="21.0995" height="15.3223" fill="#FFD1A6"/>
<path d="M599.723 335.815H621.074L610.524 345.486H589.173L599.723 335.815Z" fill="#B59391"/>
<path d="M610.273 345.486L620.822 335.815L631.623 345.486V360.557H610.273V345.486Z" fill="white"/>
<rect x="619.818" y="351.263" width="3.01422" height="5.52607" fill="#FFD9A0"/>
<rect x="593.946" y="351.389" width="2.26067" height="5.52607" fill="#C2CBEC"/>
<rect x="602.486" y="351.389" width="2.26067" height="5.52607" fill="#C2CBEC"/>
<rect x="1341.53" y="381.519" width="26.5119" height="19.2527" fill="#FFD1A6"/>
<path d="M1354.79 369.526H1381.62L1368.36 381.678H1341.54L1354.79 369.526Z" fill="#B59391"/>
<path d="M1368.05 381.677L1381.3 369.526L1394.87 381.677V400.614H1368.05V381.677Z" fill="white"/>
<rect x="1380.04" y="388.937" width="3.78741" height="6.94358" fill="#FFD9A0"/>
<rect x="1347.53" y="389.095" width="2.84056" height="6.94358" fill="#C2CBEC"/>
<rect x="1358.26" y="389.095" width="2.84056" height="6.94358" fill="#C2CBEC"/>
<rect x="647.197" y="307.705" width="54.1318" height="37.7361" fill="#FFD1A6"/>
<path d="M658.127 297.685H712.259L701.329 307.705H647.197L658.127 297.685Z" fill="#B59391"/>
<path d="M701.329 307.705L712.259 297.685L723.45 307.705V345.441H701.329V307.705Z" fill="white"/>
<rect x="710.698" y="333.209" width="3.12299" height="5.72548" fill="#FFD9A0"/>
<rect x="710.698" y="320.978" width="3.12299" height="5.72548" fill="#FFD9A0"/>
<rect x="655.525" y="320.978" width="4.42423" height="5.72548" fill="#C2CBEC"/>
<rect x="655.525" y="333.209" width="4.42423" height="5.72548" fill="#C2CBEC"/>
<rect x="671.14" y="320.978" width="4.42423" height="5.72548" fill="#C2CBEC"/>
<rect x="671.14" y="333.209" width="4.42423" height="5.72548" fill="#C2CBEC"/>
<rect x="686.755" y="333.209" width="4.42423" height="5.72548" fill="#C2CBEC"/>
<rect x="686.755" y="320.978" width="4.42423" height="5.72548" fill="#C2CBEC"/>
<rect width="21.8609" height="15.8752" transform="matrix(-1 0 0 1 696.152 347.362)" fill="white"/>
<path d="M685.222 337.473H663.101L674.031 347.492H696.152L685.222 337.473Z" fill="#B59391"/>
<path d="M674.292 347.492L663.361 337.473L652.17 347.492V363.107H674.292V347.492Z" fill="#FFD1A6"/>
<rect width="3.12299" height="5.72548" transform="matrix(-1 0 0 1 664.402 353.478)" fill="#C2CBEC"/>
<rect width="2.34224" height="5.72548" transform="matrix(-1 0 0 1 691.208 353.608)" fill="#FFD9A0"/>
<rect width="2.34224" height="5.72548" transform="matrix(-1 0 0 1 682.359 353.608)" fill="#FFD9A0"/>
<rect width="27.4685" height="19.9474" transform="matrix(-1 0 0 1 1292.65 381.953)" fill="white"/>
<path d="M1278.91 369.526H1251.12L1264.85 382.116H1292.65L1278.91 369.526Z" fill="#B59391"/>
<path d="M1265.18 382.116L1251.44 369.526L1237.38 382.116V401.736H1265.18V382.116Z" fill="#FFD1A6"/>
<rect width="3.92408" height="7.19414" transform="matrix(-1 0 0 1 1252.75 389.637)" fill="#C2CBEC"/>
<rect width="2.94306" height="7.19414" transform="matrix(-1 0 0 1 1286.43 389.8)" fill="#FFD9A0"/>
<rect width="2.94306" height="7.19414" transform="matrix(-1 0 0 1 1275.31 389.8)" fill="#FFD9A0"/>
<rect width="54.1318" height="37.7361" transform="matrix(-1 0 0 1 791.42 340.861)" fill="white"/>
<rect width="54.1318" height="37.7361" transform="matrix(-1 0 0 1 791.42 340.991)" fill="white"/>
<path d="M780.49 330.841H726.358L737.289 340.861H791.42L780.49 330.841Z" fill="#B59391"/>
<path d="M737.289 340.861L726.358 330.841L715.168 340.861V378.597H737.289V340.861Z" fill="#FFD1A6"/>
<rect width="3.12299" height="5.72548" transform="matrix(-1 0 0 1 727.92 366.365)" fill="#C2CBEC"/>
<rect width="3.12299" height="5.72548" transform="matrix(-1 0 0 1 727.92 354.134)" fill="#C2CBEC"/>
<rect width="2.86274" height="5.72548" transform="matrix(-1 0 0 1 766.957 354.004)" fill="#FFD9A0"/>
<rect width="2.86274" height="5.72548" transform="matrix(-1 0 0 1 766.957 366.235)" fill="#FFD9A0"/>
<rect width="2.60249" height="5.72548" transform="matrix(-1 0 0 1 757.328 354.004)" fill="#FFD9A0"/>
<rect width="2.60249" height="5.72548" transform="matrix(-1 0 0 1 757.328 366.235)" fill="#FFD9A0"/>
<rect width="2.60249" height="5.72548" transform="matrix(-1 0 0 1 747.699 366.235)" fill="#FFD9A0"/>
<rect width="2.60249" height="5.72548" transform="matrix(-1 0 0 1 747.699 354.004)" fill="#FFD9A0"/>
<rect width="2.60249" height="5.72548" transform="matrix(-1 0 0 1 785.955 354.264)" fill="#FFD9A0"/>
<rect width="2.60249" height="5.72548" transform="matrix(-1 0 0 1 785.955 366.495)" fill="#FFD9A0"/>
<rect width="2.60249" height="5.72548" transform="matrix(-1 0 0 1 776.326 366.495)" fill="#FFD9A0"/>
<rect width="2.60249" height="5.72548" transform="matrix(-1 0 0 1 776.326 354.264)" fill="#FFD9A0"/>
<rect width="54.1318" height="37.7361" transform="matrix(-1 0 0 1 791.42 340.861)" fill="white"/>
<rect width="54.1318" height="37.7361" transform="matrix(-1 0 0 1 791.42 340.991)" fill="white"/>
<path d="M780.49 330.841H726.358L737.289 340.861H791.42L780.49 330.841Z" fill="#B59391"/>
<path d="M737.289 340.861L726.358 330.841L715.168 340.861V378.597H737.289V340.861Z" fill="#FFD1A6"/>
<rect width="3.12299" height="5.72548" transform="matrix(-1 0 0 1 727.92 366.365)" fill="#C2CBEC"/>
<rect width="3.12299" height="5.72548" transform="matrix(-1 0 0 1 727.92 354.134)" fill="#C2CBEC"/>
<rect width="2.86274" height="5.72548" transform="matrix(-1 0 0 1 766.957 354.004)" fill="#FFD9A0"/>
<rect width="2.86274" height="5.72548" transform="matrix(-1 0 0 1 766.957 366.235)" fill="#FFD9A0"/>
<rect width="2.60249" height="5.72548" transform="matrix(-1 0 0 1 757.328 354.004)" fill="#FFD9A0"/>
<rect width="2.60249" height="5.72548" transform="matrix(-1 0 0 1 757.328 366.235)" fill="#FFD9A0"/>
<rect width="2.60249" height="5.72548" transform="matrix(-1 0 0 1 747.699 366.235)" fill="#FFD9A0"/>
<rect width="2.60249" height="5.72548" transform="matrix(-1 0 0 1 747.699 354.004)" fill="#FFD9A0"/>
<rect width="2.60249" height="5.72548" transform="matrix(-1 0 0 1 785.955 354.264)" fill="#FFD9A0"/>
<rect width="2.60249" height="5.72548" transform="matrix(-1 0 0 1 785.955 366.495)" fill="#FFD9A0"/>
<rect width="2.60249" height="5.72548" transform="matrix(-1 0 0 1 776.326 366.495)" fill="#FFD9A0"/>
<rect width="2.60249" height="5.72548" transform="matrix(-1 0 0 1 776.326 354.264)" fill="#FFD9A0"/>
<rect width="68.0173" height="47.4159" transform="matrix(-1 0 0 1 1475.77 404.771)" fill="white"/>
<rect width="68.0173" height="47.4159" transform="matrix(-1 0 0 1 1475.77 404.934)" fill="white"/>
<path d="M1462.03 392.181H1394.02L1407.75 404.771H1475.77L1462.03 392.181Z" fill="#B59391"/>
<path d="M1407.75 404.771L1394.02 392.181L1379.95 404.771V452.187H1407.75V404.771Z" fill="#FFD1A6"/>
<rect width="3.92408" height="7.19414" transform="matrix(-1 0 0 1 1395.98 436.817)" fill="#C2CBEC"/>
<rect width="3.92408" height="7.19414" transform="matrix(-1 0 0 1 1395.98 421.448)" fill="#C2CBEC"/>
<rect width="3.59707" height="7.19414" transform="matrix(-1 0 0 1 1445.03 421.285)" fill="#FFD9A0"/>
<rect width="3.59707" height="7.19414" transform="matrix(-1 0 0 1 1445.03 436.654)" fill="#FFD9A0"/>
<rect width="3.27006" height="7.19414" transform="matrix(-1 0 0 1 1432.93 421.285)" fill="#FFD9A0"/>
<rect width="3.27006" height="7.19414" transform="matrix(-1 0 0 1 1432.93 436.654)" fill="#FFD9A0"/>
<rect width="3.27006" height="7.19414" transform="matrix(-1 0 0 1 1420.83 436.654)" fill="#FFD9A0"/>
<rect width="3.27006" height="7.19414" transform="matrix(-1 0 0 1 1420.83 421.285)" fill="#FFD9A0"/>
<rect width="3.27006" height="7.19414" transform="matrix(-1 0 0 1 1468.9 421.611)" fill="#FFD9A0"/>
<rect width="3.27006" height="7.19414" transform="matrix(-1 0 0 1 1468.9 436.981)" fill="#FFD9A0"/>
<rect width="3.27006" height="7.19414" transform="matrix(-1 0 0 1 1456.8 436.981)" fill="#FFD9A0"/>
<rect width="3.27006" height="7.19414" transform="matrix(-1 0 0 1 1456.8 421.611)" fill="#FFD9A0"/>
<rect x="756.613" y="429.758" width="46.419" height="33.709" fill="#FFD1A6"/>
<path d="M779.823 408.759H826.794L803.585 430.034H756.613L779.823 408.759Z" fill="#DB7D77"/>
<path d="M803.032 430.034L826.241 408.759L850.004 430.034V463.191H803.032V430.034Z" fill="white"/>
<rect x="824.031" y="442.744" width="6.63128" height="12.1574" fill="#FFD9A0"/>
<rect x="767.113" y="443.021" width="4.97346" height="12.1574" fill="#C2CBEC"/>
<rect x="785.901" y="443.021" width="4.97346" height="12.1574" fill="#C2CBEC"/>
<rect x="1252.3" y="405.228" width="28.8402" height="20.9435" fill="#FFD1A6"/>
<path d="M1266.72 392.181H1295.91L1281.49 405.399H1252.3L1266.72 392.181Z" fill="#DB7D77"/>
<path d="M1281.14 405.399L1295.56 392.181L1310.33 405.399V425.999H1281.14V405.399Z" fill="white"/>
<rect x="1294.19" y="413.296" width="4.12003" height="7.55339" fill="#FFD9A0"/>
<rect x="1258.82" y="413.468" width="3.09002" height="7.55339" fill="#C2CBEC"/>
<rect x="1270.5" y="413.468" width="3.09002" height="7.55339" fill="#C2CBEC"/>
<rect x="824.584" y="455.784" width="144.252" height="102.18" fill="#FFD1A6"/>
<path d="M853.712 428.653H997.964L968.836 455.783H824.584L853.712 428.653Z" fill="#B59391"/>
<path d="M968.836 455.784L997.964 428.653L1027.79 455.784V557.963H968.836V455.784Z" fill="white"/>
<rect x="993.803" y="524.843" width="8.32224" height="15.5031" fill="#FFD9A0"/>
<rect x="993.803" y="491.723" width="8.32224" height="15.5031" fill="#FFD9A0"/>
<rect x="846.777" y="491.723" width="11.7899" height="15.5031" fill="#C2CBEC"/>
<rect x="846.777" y="524.843" width="11.7899" height="15.5031" fill="#C2CBEC"/>
<rect x="888.388" y="491.723" width="11.7899" height="15.5031" fill="#C2CBEC"/>
<rect x="888.388" y="524.843" width="11.7899" height="15.5031" fill="#C2CBEC"/>
<rect x="929.999" y="524.843" width="11.7899" height="15.5031" fill="#C2CBEC"/>
<rect x="929.999" y="491.723" width="11.7899" height="15.5031" fill="#C2CBEC"/>
<path d="M710.194 377.26H795.572L799.716 388.865H754.955H710.194V377.26Z" fill="#CCB9A8"/>
<path d="M728.43 377.261C725.114 373.116 720.141 372.287 708.536 377.261L711.023 398.812C723.733 397.431 757.678 394.353 759.929 391.352C762.415 388.036 749.982 375.603 745.008 379.747C740.864 375.603 731.083 380.576 728.43 377.261Z" fill="#8EE47F"/>
<path d="M728.43 377.261C725.114 373.116 720.141 372.287 708.536 377.261L711.023 398.812C723.733 397.431 756.849 393.524 759.1 390.523C761.586 387.208 759.1 374.774 745.008 379.747C740.864 375.603 733.403 373.116 728.43 377.261Z" fill="#8EE47F"/>
<rect x="796.462" y="387.892" width="1.53502" height="4.2885" fill="#9B6262"/>
<path d="M801.374 380.348C801.374 385.655 799.519 389.957 797.23 389.957C794.941 389.957 793.085 385.655 793.085 380.348C793.085 375.041 794.941 365.656 797.23 365.656C799.519 365.656 801.374 375.041 801.374 380.348Z" fill="#45B464"/>
<rect x="807.392" y="388.429" width="1.22802" height="3.75243" fill="#9B6262"/>
<path d="M811.321 381.827C811.321 386.471 809.837 390.235 808.006 390.235C806.174 390.235 804.69 386.471 804.69 381.827C804.69 377.183 806.174 368.971 808.006 368.971C809.837 368.971 811.321 377.183 811.321 381.827Z" fill="#45B464"/>
</g>
</svg>
