<?xml version="1.0" encoding="UTF-8"?>
<svg width="801px" height="571px" viewBox="0 0 801 571" version="1.1" xmlns="http://www.w3.org/2000/svg" xmlns:xlink="http://www.w3.org/1999/xlink">
    <title>Artboard</title>
    <g id="Artboard" stroke="none" stroke-width="1" fill="none" fill-rule="evenodd">
        <rect fill="#FFFFFF" x="0" y="0" width="801" height="571"></rect>
        <rect id="Rectangle" stroke="#979797" fill="#FFFFFF" x="46.5" y="73.5" width="716" height="454"></rect>
        <rect id="Rectangle" stroke="#979797" fill="#FFFFFF" x="46.5" y="73.5" width="716" height="454"></rect>
        <text id="・-・-・" font-family="HiraginoSans-W4, Hiragino Sans" font-size="18" font-weight="normal" fill="#1F2937">
            <tspan x="160" y="447">・</tspan>
            <tspan x="178" y="447" font-family="AvenirNext-Medium, Avenir Next" font-weight="400"></tspan>
            <tspan x="160" y="465">・</tspan>
            <tspan x="178" y="465" font-family="AvenirNext-Medium, Avenir Next" font-weight="400"></tspan>
            <tspan x="160" y="483">・</tspan>
        </text>
        <rect id="Rectangle" stroke="#979797" fill="#D8D8D8" x="75.5" y="144.5" width="188" height="70"></rect>
        <rect id="Rectangle" stroke="#979797" fill="#D8D8D8" x="75.5" y="242.5" width="188" height="70"></rect>
        <rect id="Rectangle" stroke="#979797" fill="#D8D8D8" x="75.5" y="242.5" width="188" height="70"></rect>
        <text id="Net" font-family="AvenirNext-Medium, Avenir Next" font-size="18" font-weight="400" fill="#1F2937">
            <tspan x="97" y="278">Net</tspan>
        </text>
        <rect id="Rectangle" stroke="#979797" fill="#D8D8D8" x="75.5" y="340.5" width="188" height="70"></rect>
        <text id="Timer" font-family="AvenirNext-Medium, Avenir Next" font-size="18" font-weight="400" fill="#1F2937">
            <tspan x="97" y="375">Timer</tspan>
        </text>
        <text id="FS" font-family="AvenirNext-Medium, Avenir Next" font-size="18" font-weight="400" fill="#1F2937">
            <tspan x="97" y="179">FS</tspan>
        </text>
        <rect id="Rectangle" stroke="#979797" fill="#83DEE3" x="499.5" y="253.5" width="178" height="158" rx="22"></rect>
        <text id="User’s-script" font-family="AvenirNext-Medium, Avenir Next" font-size="18" font-weight="400" fill="#1F2937">
            <tspan x="538" y="288">User’s script</tspan>
        </text>
        <text id="opcall_async" font-family="AvenirNext-Medium, Avenir Next" font-size="18" font-weight="400" fill="#1F2937">
            <tspan x="357" y="273">opcall_async</tspan>
        </text>
        <text id="opcall_sync" font-family="AvenirNext-Medium, Avenir Next" font-size="18" font-weight="400" fill="#1F2937">
            <tspan x="356" y="246">opcall_sync</tspan>
        </text>
        <text id="Rust" font-family="AvenirNext-Medium, Avenir Next" font-size="24" font-weight="400" fill="#1F2937">
            <tspan x="60" y="108">Rust</tspan>
        </text>
        <rect id="Rectangle" stroke="#979797" x="410.5" y="136.5" width="309" height="344"></rect>
        <text id="V8-Sandbox" font-family="AvenirNext-Medium, Avenir Next" font-size="18" font-weight="400" fill="#1E1E1E">
            <tspan x="529" y="135">V8 Sandbox</tspan>
        </text>
        <text id="V8" font-family="AvenirNext-Medium, Avenir Next" font-size="24" font-weight="400" fill="#1F2937">
            <tspan x="431" y="180">V8</tspan>
        </text>
        <text id="Deno" font-family="AvenirNext-DemiBold, Avenir Next" font-size="36" font-weight="500" fill="#1F2937">
            <tspan x="46" y="51">Deno</tspan>
        </text>
        <path id="Line" d="M439,296 L448,300.5 L439,305 L439,301 L376.972457,301.000707 C376.723414,303.250342 374.816034,305 372.5,305 C370.014719,305 368,302.985281 368,300.5 C368,298.014719 370.014719,296 372.5,296 C374.816379,296 376.723981,297.750179 376.972568,300.000297 L439,300 L439,296 Z M372.5,297 C370.567003,297 369,298.567003 369,300.5 C369,302.432997 370.567003,304 372.5,304 C374.432997,304 376,302.432997 376,300.5 C376,298.567003 374.432997,297 372.5,297 Z" fill="#585858" fill-rule="nonzero"></path>
        <path id="Line" d="M264.151323,189.141637 L273.652784,192.454073 L270.785,195.243 L369.739374,296.945775 C371.525439,295.554972 374.109986,295.701753 375.725267,297.361903 C377.45839,299.143168 377.419363,301.992143 375.638097,303.725267 C373.856832,305.45839 371.007857,305.419363 369.274733,303.638097 C367.659416,301.97791 367.583519,299.390231 369.022827,297.642932 L270.069,195.941 L267.20225,198.730268 L264.151323,189.141637 Z M370.21961,297.844696 L369.912399,298.143075 C368.673455,299.500743 368.692875,301.606087 369.991459,302.940742 C371.339444,304.326171 373.555314,304.356526 374.940742,303.008541 C376.326171,301.660556 376.356526,299.444686 375.008541,298.059258 C373.711441,296.726127 371.610742,296.647697 370.21961,297.844696 Z" fill="#585858" fill-rule="nonzero"></path>
        <path id="Line" d="M273.624144,279.458619 L272.966,283.404 L368.170621,299.271155 C368.785993,297.092892 370.955162,295.680455 373.239795,296.061227 C375.691262,296.469805 377.34735,298.788329 376.938773,301.239795 C376.530195,303.691262 374.211671,305.34735 371.760205,304.938773 C369.475424,304.557976 367.881537,302.518135 368.006122,300.257861 L272.802,284.39 L272.144553,288.336164 L264.006803,282.417801 L273.624144,279.458619 Z M369.154586,299.469926 L369.001478,300.385321 C368.94264,302.113783 370.172404,303.660345 371.924604,303.952379 C373.8313,304.270161 375.634596,302.982093 375.952379,301.075396 C376.270161,299.1687 374.982093,297.365404 373.075396,297.047621 C371.324574,296.755817 369.660936,297.818039 369.154586,299.469926 Z" fill="#585858" fill-rule="nonzero"></path>
        <path id="Line" d="M376.084008,297.778808 C377.586881,299.758202 377.200585,302.581136 375.221192,304.084008 C373.376567,305.484557 370.799358,305.24443 369.24064,303.603249 L271.571,377.757 L273.990985,380.94398 L264.101777,382.802355 L268.548602,373.775963 L270.967,376.961 L368.635137,302.805736 C367.473123,300.863425 367.934216,298.316515 369.778808,296.915992 C371.758202,295.413119 374.581136,295.799415 376.084008,297.778808 Z M370.383518,297.712438 C368.974834,298.781994 368.603558,300.71116 369.446103,302.210765 L370.030561,302.980899 C371.248602,304.196368 373.207364,304.357448 374.616482,303.287562 C376.15601,302.118661 376.456463,299.923046 375.287562,298.383518 C374.118661,296.84399 371.923046,296.543537 370.383518,297.712438 Z" fill="#585858" fill-rule="nonzero"></path>
        <path id="Line" d="M375.039392,296.784964 C377.091149,298.187431 377.617503,300.987634 376.215036,303.039392 C374.907974,304.951574 372.386878,305.538831 370.38905,304.474603 L269.709,451.765 L273.011664,454.022102 L264.217845,458.912782 L265.581593,448.943319 L268.883,451.2 L369.562586,303.909573 C367.846078,302.434455 367.478055,299.872568 368.784964,297.960608 C370.187431,295.908851 372.987634,295.382497 375.039392,296.784964 Z M369.610528,298.524918 C368.603102,299.998744 368.875285,301.9691 370.1799,303.121014 L370.901384,303.614004 C372.448221,304.41055 374.382275,303.948574 375.389472,302.475082 C376.48028,300.879271 376.070894,298.701336 374.475082,297.610528 C372.879271,296.51972 370.701336,296.929106 369.610528,298.524918 Z" fill="#585858" fill-rule="nonzero"></path>
        <text id="Check-permissions" font-family="AvenirNext-Medium, Avenir Next" font-size="18" font-weight="400" fill="#D94629">
            <tspan x="332" y="419">Check permissions</tspan>
        </text>
        <path id="Line-2" d="M392.5,308 L397,317 L393,317 L393,401 L392,401 L392,317 L388,317 L392.5,308 Z" fill="#D94629" fill-rule="nonzero"></path>
    </g>
</svg>